<svg width="40" height="40" viewBox="0 0 40 40" fill="none" xmlns="http://www.w3.org/2000/svg">
<path d="M13.3333 30L20 24.9167L26.6667 30L24.1667 21.75L30.8333 17H22.6667L20 8.33333L17.3333 17H9.16667L15.8333 21.75L13.3333 30ZM20 36.6667C17.6944 36.6667 15.5278 36.2292 13.5 35.3542C11.4722 34.4792 9.70834 33.2917 8.20834 31.7917C6.70834 30.2917 5.52084 28.5278 4.64584 26.5C3.77084 24.4722 3.33334 22.3056 3.33334 20C3.33334 17.6944 3.77084 15.5278 4.64584 13.5C5.52084 11.4722 6.70834 9.70833 8.20834 8.20833C9.70834 6.70833 11.4722 5.52083 13.5 4.64583C15.5278 3.77083 17.6944 3.33333 20 3.33333C22.3056 3.33333 24.4722 3.77083 26.5 4.64583C28.5278 5.52083 30.2917 6.70833 31.7917 8.20833C33.2917 9.70833 34.4792 11.4722 35.3542 13.5C36.2292 15.5278 36.6667 17.6944 36.6667 20C36.6667 22.3056 36.2292 24.4722 35.3542 26.5C34.4792 28.5278 33.2917 30.2917 31.7917 31.7917C30.2917 33.2917 28.5278 34.4792 26.5 35.3542C24.4722 36.2292 22.3056 36.6667 20 36.6667Z" fill="#49454F"/>
</svg>
