<svg width="38" height="33" viewBox="0 0 38 33" fill="none" xmlns="http://www.w3.org/2000/svg">
<path d="M32.5445 4.55206C31.7358 3.74298 30.7757 3.10116 29.7189 2.66327C28.662 2.22538 27.5293 2 26.3854 2C25.2414 2 24.1087 2.22538 23.0519 2.66327C21.9951 3.10116 21.0349 3.74298 20.2262 4.55206L18.5479 6.23039L16.8695 4.55206C15.236 2.91854 13.0205 2.00085 10.7104 2.00085C8.40024 2.00085 6.18472 2.91854 4.55121 4.55206C2.9177 6.18557 2 8.40109 2 10.7112C2 13.0214 2.9177 15.2369 4.55121 16.8704L18.5479 30.8671L32.5445 16.8704C33.3536 16.0617 33.9954 15.1015 34.4333 14.0447C34.8712 12.9879 35.0966 11.8552 35.0966 10.7112C35.0966 9.56729 34.8712 8.43455 34.4333 7.37774C33.9954 6.32093 33.3536 5.36075 32.5445 4.55206Z" stroke="#CF85EA" stroke-width="4" stroke-linecap="round" stroke-linejoin="round"/>
</svg>
