<svg width="16" height="14" viewBox="0 0 16 14" fill="none" xmlns="http://www.w3.org/2000/svg">
<path d="M13.6609 1.87455C13.3204 1.53389 12.9161 1.26365 12.4711 1.07927C12.0261 0.894898 11.5492 0.8 11.0675 0.8C10.5859 0.8 10.1089 0.894898 9.66396 1.07927C9.21898 1.26365 8.8147 1.53389 8.47419 1.87455L7.76753 2.58122L7.06086 1.87455C6.37307 1.18676 5.44022 0.800356 4.46753 0.800356C3.49484 0.800356 2.56199 1.18676 1.87419 1.87455C1.1864 2.56235 0.8 3.49519 0.8 4.46788C0.8 5.44057 1.1864 6.37342 1.87419 7.06122L7.76753 12.9545L13.6609 7.06122C14.0015 6.72071 14.2718 6.31643 14.4561 5.87145C14.6405 5.42648 14.7354 4.94954 14.7354 4.46788C14.7354 3.98622 14.6405 3.50929 14.4561 3.06431C14.2718 2.61934 14.0015 2.21505 13.6609 1.87455Z" stroke="#1E1E1E" stroke-width="1.6" stroke-linecap="round" stroke-linejoin="round"/>
</svg>
